<?xml version="1.0" encoding="UTF-8"?>
<!DOCTYPE svg PUBLIC "-//W3C//DTD SVG 1.1//EN" "http://www.w3.org/Graphics/SVG/1.1/DTD/svg11.dtd">
<svg xmlns="http://www.w3.org/2000/svg" version="1.1" width="1024px" height="1024px" style="shape-rendering:geometricPrecision; text-rendering:geometricPrecision; image-rendering:optimizeQuality; fill-rule:evenodd; clip-rule:evenodd" xmlns:xlink="http://www.w3.org/1999/xlink">
<g><path style="opacity:1" fill="#fbfaf8" d="M -0.5,-0.5 C 340.833,-0.5 682.167,-0.5 1023.5,-0.5C 1023.5,340.833 1023.5,682.167 1023.5,1023.5C 682.167,1023.5 340.833,1023.5 -0.5,1023.5C -0.5,682.167 -0.5,340.833 -0.5,-0.5 Z"/></g>
<g><path style="opacity:1" fill="#111211" d="M 882.5,812.5 C 881.876,812.083 881.543,811.416 881.5,810.5C 884.614,801.431 886.114,792.097 886,782.5C 886.5,571.167 886.667,359.834 886.5,148.5C 656.5,148.5 426.5,148.5 196.5,148.5C 196.5,183.5 196.5,218.5 196.5,253.5C 171.84,254.157 147.173,254.824 122.5,255.5C 121.584,255.457 120.917,255.124 120.5,254.5C 121.766,253.91 123.099,253.41 124.5,253C 148.164,252.5 171.831,252.333 195.5,252.5C 195.5,217.167 195.5,181.833 195.5,146.5C 426.167,146.5 656.833,146.5 887.5,146.5C 887.667,361.834 887.5,577.167 887,792.5C 886.219,799.339 884.719,806.005 882.5,812.5 Z"/></g>
<g><path style="opacity:1" fill="#0b0f0c" d="M 882.5,812.5 C 865.892,852.326 835.892,873.16 792.5,875C 594.833,875.667 397.167,875.667 199.5,875C 174.567,872.451 154.067,861.618 138,842.5C 119.758,819.788 109.758,793.788 108,764.5C 107.333,599.833 107.333,435.167 108,270.5C 109.81,263.205 113.976,257.872 120.5,254.5C 120.917,255.124 121.584,255.457 122.5,255.5C 147.173,254.824 171.84,254.157 196.5,253.5C 196.5,218.5 196.5,183.5 196.5,148.5C 426.5,148.5 656.5,148.5 886.5,148.5C 886.667,359.834 886.5,571.167 886,782.5C 886.114,792.097 884.614,801.431 881.5,810.5C 881.543,811.416 881.876,812.083 882.5,812.5 Z"/></g>
<g><path style="opacity:1" fill="#010201" d="M 846.5,188.5 C 642.5,188.5 438.5,188.5 234.5,188.5C 234.667,384.167 234.5,579.834 234,775.5C 232.919,787.487 230.419,799.154 226.5,810.5C 225.876,810.083 225.543,809.416 225.5,808.5C 228.495,799.359 230.661,790.026 232,780.5C 232.167,582.832 232.667,385.166 233.5,187.5C 437.794,186.335 642.127,186.168 846.5,187C 847.738,187.69 847.738,188.19 846.5,188.5 Z"/></g>
<g><path style="opacity:1" fill="#fbfaf8" d="M 846.5,188.5 C 846.667,390.167 846.5,591.834 846,793.5C 838.388,819.105 821.222,832.938 794.5,835C 601.167,835.667 407.833,835.667 214.5,835C 219.442,827.283 223.442,819.116 226.5,810.5C 230.419,799.154 232.919,787.487 234,775.5C 234.5,579.834 234.667,384.167 234.5,188.5C 438.5,188.5 642.5,188.5 846.5,188.5 Z"/></g>
<g><path style="opacity:1" fill="#020202" d="M 288.5,242.5 C 458.167,242.5 627.833,242.5 797.5,242.5C 797.5,253.833 797.5,265.167 797.5,276.5C 638.833,276.5 480.167,276.5 321.5,276.5C 321.5,403.167 321.5,529.833 321.5,656.5C 480.334,656.167 639.001,656.5 797.5,657.5C 796.506,667.653 796.172,677.986 796.5,688.5C 627.167,688.5 457.833,688.5 288.5,688.5C 288.5,539.833 288.5,391.167 288.5,242.5 Z"/></g>
<g><path style="opacity:1" fill="#0a0e0b" d="M 290.5,244.5 C 458.5,244.5 626.5,244.5 794.5,244.5C 794.5,254.167 794.5,263.833 794.5,273.5C 636.666,273.167 478.999,273.5 321.5,274.5C 321.217,275.289 320.717,275.956 320,276.5C 319.333,403.167 319.333,529.833 320,656.5C 320.383,657.056 320.883,657.389 321.5,657.5C 478.999,658.5 636.666,658.833 794.5,658.5C 794.5,667.833 794.5,677.167 794.5,686.5C 626.5,686.5 458.5,686.5 290.5,686.5C 290.5,539.167 290.5,391.833 290.5,244.5 Z"/></g>
<g><path style="opacity:1" fill="#141815" d="M 794.5,244.5 C 795.494,254.319 795.827,264.319 795.5,274.5C 637.5,274.5 479.5,274.5 321.5,274.5C 478.999,273.5 636.666,273.167 794.5,273.5C 794.5,263.833 794.5,254.167 794.5,244.5 Z"/></g>
<g><path style="opacity:1" fill="#000000" d="M 195.5,777.5 C 195.5,615.5 195.5,453.5 195.5,291.5C 179.5,291.5 163.5,291.5 147.5,291.5C 147.333,448.834 147.5,606.167 148,763.5C 148.846,770.245 150.013,776.912 151.5,783.5C 151.631,784.239 151.464,784.906 151,785.5C 149.194,779.944 147.861,774.278 147,768.5C 146.832,695.93 146.332,623.43 145.5,551C 146.218,500.631 146.218,449.964 145.5,399C 145.835,362.518 146.835,326.185 148.5,290C 164.408,289.176 180.241,289.343 196,290.5C 196.831,455.521 196.664,617.854 195.5,777.5 Z"/></g>
<g><path style="opacity:1" fill="#f7f7f5" d="M 195.5,777.5 C 193.809,790.214 189.643,802.214 183,813.5C 180.868,817.431 178.035,820.764 174.5,823.5C 163.21,812.253 155.543,798.919 151.5,783.5C 150.013,776.912 148.846,770.245 148,763.5C 147.5,606.167 147.333,448.834 147.5,291.5C 163.5,291.5 179.5,291.5 195.5,291.5C 195.5,453.5 195.5,615.5 195.5,777.5 Z"/></g>
<g><path style="opacity:1" fill="#0b0e0c" d="M 393.5,327.5 C 435.168,327.333 476.835,327.5 518.5,328C 539.96,327.957 560.293,332.624 579.5,342C 609.67,362.812 620.836,391.312 613,427.5C 607.496,446.661 596.33,461.494 579.5,472C 573.96,475.27 568.293,478.27 562.5,481C 578.377,506.585 593.877,532.418 609,558.5C 614.788,567.955 622.288,575.788 631.5,582C 637.575,584.603 643.909,585.769 650.5,585.5C 650.5,591.833 650.5,598.167 650.5,604.5C 629.831,604.667 609.164,604.5 588.5,604C 577.172,601.418 568.338,595.252 562,585.5C 544.667,554.167 527.333,522.833 510,491.5C 499.916,490.514 489.749,490.181 479.5,490.5C 479.333,512.503 479.5,534.503 480,556.5C 480.941,576.551 491.441,586.551 511.5,586.5C 511.5,592.5 511.5,598.5 511.5,604.5C 472.167,604.5 432.833,604.5 393.5,604.5C 393.5,598.5 393.5,592.5 393.5,586.5C 413.098,586.068 423.265,576.068 424,556.5C 424.667,496.167 424.667,435.833 424,375.5C 421.213,358.215 411.046,349.215 393.5,348.5C 393.5,341.5 393.5,334.5 393.5,327.5 Z"/></g>
<g><path style="opacity:1" fill="#0f120f" d="M 666.5,337.5 C 710.167,337.5 753.833,337.5 797.5,337.5C 797.5,348.833 797.5,360.167 797.5,371.5C 753.833,371.5 710.167,371.5 666.5,371.5C 666.5,360.167 666.5,348.833 666.5,337.5 Z"/></g>
<g><path style="opacity:1" fill="#f9f8f6" d="M 479.5,353.5 C 543.439,347.254 566.939,374.92 550,436.5C 542.035,451.581 529.535,460.414 512.5,463C 501.544,464.319 490.544,464.819 479.5,464.5C 479.5,427.5 479.5,390.5 479.5,353.5 Z"/></g>
<g><path style="opacity:1" fill="#0b0e0c" d="M 666.5,432.5 C 710.167,432.5 753.833,432.5 797.5,432.5C 797.5,443.5 797.5,454.5 797.5,465.5C 753.833,465.5 710.167,465.5 666.5,465.5C 666.5,454.5 666.5,443.5 666.5,432.5 Z"/></g>
<g><path style="opacity:1" fill="#0c0f0d" d="M 690.5,526.5 C 726.167,526.5 761.833,526.5 797.5,526.5C 797.5,537.5 797.5,548.5 797.5,559.5C 761.833,559.5 726.167,559.5 690.5,559.5C 690.5,548.5 690.5,537.5 690.5,526.5 Z"/></g>
<g><path style="opacity:1" fill="#161b18" d="M 290.5,244.5 C 290.5,391.833 290.5,539.167 290.5,686.5C 458.5,686.5 626.5,686.5 794.5,686.5C 794.5,677.167 794.5,667.833 794.5,658.5C 636.666,658.833 478.999,658.5 321.5,657.5C 479.5,657.5 637.5,657.5 795.5,657.5C 795.5,667.5 795.5,677.5 795.5,687.5C 626.833,687.5 458.167,687.5 289.5,687.5C 289.167,539.666 289.5,391.999 290.5,244.5 Z"/></g>
<g><path style="opacity:1" fill="#393c39" d="M 288.5,242.5 C 288.5,391.167 288.5,539.833 288.5,688.5C 457.833,688.5 627.167,688.5 796.5,688.5C 796.172,677.986 796.506,667.653 797.5,657.5C 797.5,668.167 797.5,678.833 797.5,689.5C 627.5,689.5 457.5,689.5 287.5,689.5C 287.167,540.332 287.5,391.332 288.5,242.5 Z"/></g>
<g><path style="opacity:1" fill="#1f201f" d="M 287.5,741.5 C 364.5,741.5 441.5,741.5 518.5,741.5C 518.5,753.167 518.5,764.833 518.5,776.5C 441.5,776.5 364.5,776.5 287.5,776.5C 287.5,764.833 287.5,753.167 287.5,741.5 Z"/></g>
<g><path style="opacity:1" fill="#1f201f" d="M 565.5,741.5 C 642.833,741.5 720.167,741.5 797.5,741.5C 797.5,753.167 797.5,764.833 797.5,776.5C 720.167,776.5 642.833,776.5 565.5,776.5C 565.5,764.833 565.5,753.167 565.5,741.5 Z"/></g>
<g><path style="opacity:1" fill="#161a17" d="M 289.5,743.5 C 365.167,743.5 440.833,743.5 516.5,743.5C 516.5,753.833 516.5,764.167 516.5,774.5C 440.833,774.5 365.167,774.5 289.5,774.5C 289.5,764.167 289.5,753.833 289.5,743.5 Z"/></g>
<g><path style="opacity:1" fill="#0a0e0b" d="M 290.5,744.5 C 365.5,744.5 440.5,744.5 515.5,744.5C 515.5,754.167 515.5,763.833 515.5,773.5C 440.5,773.5 365.5,773.5 290.5,773.5C 290.5,763.833 290.5,754.167 290.5,744.5 Z"/></g>
<g><path style="opacity:1" fill="#161b18" d="M 567.5,743.5 C 643.5,743.5 719.5,743.5 795.5,743.5C 795.5,753.833 795.5,764.167 795.5,774.5C 719.5,774.5 643.5,774.5 567.5,774.5C 567.5,764.167 567.5,753.833 567.5,743.5 Z"/></g>
<g><path style="opacity:1" fill="#0a0e0b" d="M 568.5,744.5 C 643.833,744.5 719.167,744.5 794.5,744.5C 794.5,754.167 794.5,763.833 794.5,773.5C 719.167,773.5 643.833,773.5 568.5,773.5C 568.5,763.833 568.5,754.167 568.5,744.5 Z"/></g>
</svg>
